<svg width="22" height="22" xmlns="http://www.w3.org/2000/svg"><title></title><g fill="none" fill-rule="evenodd"><path d="M.5.5h21v21H.5z"/><path d="M13.405 8.777a4.6 4.6 0 0 0-.47-.406.934.934 0 0 0-1.363 1.272.937.937 0 0 0 .23.199c.088.072.175.144.256.225l.077.077c.967.966.678 2.631-.29 3.6L7.717 17.87a2.485 2.485 0 0 1-3.509 0l-.077-.077a2.482 2.482 0 0 1 0-3.508l1.824-1.824a1.014 1.014 0 0 0-1.2-1.633l-.001-.003-.02.018a1.02 1.02 0 0 0-.193.18L2.644 12.8c-1.782 1.783-1.782 4.7 0 6.48l.077.078a4.597 4.597 0 0 0 6.48 0l4.129-4.13c1.78-1.782 1.93-4.593.15-6.374l-.075-.076Z" fill="#CC5656" fill-rule="nonzero"/><path d="m19.356 2.721-.077-.077a4.595 4.595 0 0 0-6.48 0L8.67 6.774c-1.782 1.782-1.88 4.356-.098 6.139l.076.075c.081.08.165.157.25.23.063.07.136.129.217.176l.002.001a.882.882 0 0 0 1.233-1.148c-.117-.262-.335-.421-.486-.572l-.076-.075c-.968-.967-.6-2.373.368-3.34l4.13-4.13a2.481 2.481 0 0 1 3.507 0l.078.077a2.484 2.484 0 0 1 0 3.509l-1.819 1.82a1.004 1.004 0 0 0 .598 1.814.994.994 0 0 0 .527-.149l.004.006.028-.026c.087-.058.164-.13.229-.211l1.917-1.77a4.594 4.594 0 0 0 0-6.48Z" fill="#CC5656" fill-rule="nonzero"/></g></svg>
