<svg width="21" height="21" viewBox="0 0 21 21" xmlns="http://www.w3.org/2000/svg"><title></title><g fill="none" fill-rule="evenodd"><path d="M0 0h21v21H0z"/><path d="M16.44 11.53a4.731 4.731 0 0 0-1.834-1.33l-.265-.101a4.828 4.828 0 0 0 1.59-1.396c.492-.755.748-1.661.73-2.586a5.093 5.093 0 0 0-.326-1.871 3.87 3.87 0 0 0-.98-1.42c-1.04-.85-2.32-1.275-3.618-1.203H4.442v17.75h7.256a6.644 6.644 0 0 0 3.96-1.046 4.007 4.007 0 0 0 1.27-1.612c.3-.712.448-1.49.431-2.274a4.296 4.296 0 0 0-.92-2.91m-10.08-.422h5.179a4.38 4.38 0 0 1 2.863.782c.713.593 1.104 1.535 1.042 2.508a3.372 3.372 0 0 1-.305 1.486c-.21.434-.526.796-.914 1.047a4.876 4.876 0 0 1-2.703.691H6.36V11.11Zm0-7.705h4.985a3.94 3.94 0 0 1 2.576.71c.588.539.906 1.349.858 2.183.047.874-.288 1.72-.903 2.286a3.954 3.954 0 0 1-2.586.77h-4.93v-5.95Z" fill="#CC5656" fill-rule="nonzero"/></g></svg>
